<?xml version="1.0" encoding="utf-8"?>
<!-- Generator: Adobe Illustrator 25.0.0, SVG Export Plug-In . SVG Version: 6.00 Build 0)  -->
<svg version="1.1" id="Layer_1" xmlns="http://www.w3.org/2000/svg" xmlns:xlink="http://www.w3.org/1999/xlink" x="0px" y="0px"
	 viewBox="0 0 376 214.9" style="enable-background:new 0 0 376 214.9;" xml:space="preserve">
<style type="text/css">
	.st0{fill:#FFFFFF;}
	.st1{fill:#E0E5EC;}
	.st2{fill:#E81500;}
	.st3{fill:#F4A100;}
	.st4{fill:#00AC69;}
	.st5{fill:#263238;}
	.st6{fill:#00BA94;}
	.st7{opacity:0.3;}
	.st8{opacity:0.3;enable-background:new    ;}
	.st9{fill:#FAFAFA;}
	.st10{fill:#EBEBEB;}
	.st11{fill:#FFBE9D;}
	.st12{fill:#EB996E;}
	.st13{fill:#455A64;}
</style>
<g id="freepik--Windows--inject-454">
	<rect y="36.7" class="st0" width="202.8" height="135.9"/>
	<rect x="0.2" y="35.7" class="st1" width="202.8" height="13.6"/>
	<path class="st2" d="M10.9,41.5c0.1,0.9-0.6,1.7-1.5,1.7c-0.9,0.1-1.7-0.6-1.7-1.5C7.6,40.8,8.3,40,9.2,40h0.1
		C10.2,40,10.9,40.7,10.9,41.5z"/>
	<path class="st3" d="M16.2,41.5c0.1,0.9-0.6,1.7-1.5,1.7c-0.9,0.1-1.7-0.6-1.7-1.5c-0.1-0.9,0.6-1.7,1.5-1.7h0.1
		C15.5,40,16.2,40.7,16.2,41.5z"/>
	<path class="st4" d="M21.5,41.5c0.1,0.9-0.6,1.7-1.5,1.7c-0.9,0.1-1.7-0.6-1.7-1.5c-0.1-0.9,0.6-1.7,1.5-1.7h0.1
		C20.7,40,21.5,40.6,21.5,41.5L21.5,41.5z"/>
	<path class="st5" d="M203,171.6c0,0,0-0.9,0-2.5s0-4,0-7.2c0-6.3,0-15.5-0.1-27.3c0-23.6-0.1-57.5-0.1-98.9l0.2,0.2L0.2,36l0,0
		l0.3-0.3c0,48.4,0,94.4,0,135.9l-0.3-0.3l146.1,0.1l41.7,0.1h11.1h2.9L203,171.6l-0.9-0.1h-2.8h-11l-41.7,0.1L0.3,171.7H0v-0.3
		C0,130,0,84,0,35.6v-0.3h0.3h202.8h0.2v0.2c0,41.4-0.1,75.4-0.1,99.1c0,11.8,0,21,0,27.3c0,3.1,0,5.5,0,7.1S203,171.6,203,171.6z"
		/>
	<rect x="13.4" y="111.5" class="st1" width="46.1" height="3.1"/>
	<rect x="73" y="68.7" class="st6" width="46.1" height="3.1"/>
	<path class="st5" d="M187.7,80.2c0,0.2-25.7,0.3-57.4,0.3S73,80.4,73,80.2s25.7-0.3,57.4-0.3S187.7,80,187.7,80.2z"/>
	<path class="st5" d="M187.7,86.9c0,0.1-25.7,0.3-57.4,0.3S73,87.1,73,86.9s25.7-0.3,57.4-0.3S187.7,86.8,187.7,86.9z"/>
	<path class="st5" d="M187.7,93.7c0,0.2-25.7,0.3-57.4,0.3S73,93.8,73,93.7s25.7-0.3,57.4-0.3S187.7,93.5,187.7,93.7z"/>
	<path class="st5" d="M187.7,100.4c0,0.2-25.7,0.3-57.4,0.3S73,100.6,73,100.4s25.7-0.3,57.4-0.3S187.7,100.3,187.7,100.4z"/>
	<path class="st5" d="M187.7,107.2c0,0.2-25.7,0.3-57.4,0.3S73,107.3,73,107.2s25.7-0.3,57.4-0.3S187.7,107,187.7,107.2z"/>
	<path class="st5" d="M117.8,113.9c0,0.2-10,0.3-22.4,0.3S73,114,73,113.9s10-0.3,22.4-0.3S117.8,113.7,117.8,113.9z"/>
	<path class="st5" d="M186.9,127c0,0.2-16.9,0.3-37.7,0.3s-37.7-0.1-37.7-0.3s16.9-0.3,37.7-0.3S186.9,126.8,186.9,127z"/>
	<path class="st5" d="M186.9,134.1c0,0.2-16.9,0.3-37.7,0.3s-37.7-0.1-37.7-0.3s16.9-0.3,37.7-0.3S186.9,134,186.9,134.1z"/>
	<path class="st5" d="M186.9,141.3c0,0.2-16.9,0.3-37.7,0.3s-37.7-0.1-37.7-0.3s16.9-0.3,37.7-0.3S186.9,141.1,186.9,141.3z"/>
	<path class="st5" d="M186.9,148.4c0,0.2-16.9,0.3-37.7,0.3s-37.7-0.1-37.7-0.3s16.9-0.3,37.7-0.3
		C170,148.1,186.9,148.3,186.9,148.4z"/>
	<path class="st5" d="M59.6,126.3c0,0.2-10.1,0.3-22.5,0.3s-22.5-0.1-22.5-0.3s10.1-0.3,22.5-0.3S59.6,126.1,59.6,126.3z"/>
	<path class="st5" d="M59.6,131.9c0,0.2-10.1,0.3-22.5,0.3s-22.5-0.1-22.5-0.3s10.1-0.3,22.5-0.3S59.6,131.7,59.6,131.9z"/>
	<path class="st5" d="M59.6,137.5c0,0.1-10.1,0.3-22.5,0.3s-22.5-0.1-22.5-0.3s10.1-0.3,22.5-0.3S59.6,137.4,59.6,137.5z"/>
	<path class="st5" d="M59.6,143.1c0,0.2-10.1,0.3-22.5,0.3s-22.5-0.1-22.5-0.3s10.1-0.3,22.5-0.3S59.6,143,59.6,143.1z"/>
	<path class="st5" d="M59.6,148.7c0,0.2-10.1,0.3-22.5,0.3s-22.5-0.1-22.5-0.3s10.1-0.3,22.5-0.3S59.6,148.6,59.6,148.7z"/>
	<rect x="73" y="123.6" class="st6" width="32.7" height="31.7"/>
	<g class="st7">
		<polygon points="75.5,152.5 84.5,136.2 91.9,146.6 96.4,141.1 103.1,152.5 		"/>
	</g>
	<g class="st7">
		<path d="M95.1,133c0,1.3-1.1,2.4-2.4,2.4s-2.4-1.1-2.4-2.4s1.1-2.4,2.4-2.4S95.1,131.7,95.1,133L95.1,133z"/>
	</g>
	<path class="st8" d="M103.1,152.6v-0.1c0-0.1,0-0.2,0-0.4c0-0.3,0-0.8,0-1.4c0-1.3,0-3.1,0-5.4c0-4.6,0-11.2-0.1-19.1l0.1,0.1H75.5
		l0.1-0.1l0,0v13.9c0,4.4,0,8.6,0,12.5l-0.1-0.1l20,0.1h5.6h1.5h-1.4h-5.6l-20.1,0.1h-0.1v-0.1c0-3.9,0-8,0-12.5c0-2.2,0-4.5,0-6.8
		V126l0,0l0.2-0.2h27.6h0.1v0.1c0,7.9,0,14.5-0.1,19.2c0,2.3,0,4.1,0,5.3c0,0.6,0,1.1,0,1.4v0.4
		C103.1,152.6,103.1,152.6,103.1,152.6z"/>
	<rect x="11.5" y="59.9" class="st1" width="46.2" height="44.7"/>
	<g class="st7">
		<polygon points="15.1,100.8 27.9,77.8 38.4,92.5 44.7,84.7 54.2,100.8 		"/>
	</g>
	<g class="st7">
		<circle cx="39.5" cy="73.3" r="3.3"/>
	</g>
	<path class="st8" d="M54.2,100.9c0-0.1,0-0.1,0-0.2s0-0.3,0-0.5c0-0.5,0-1.1,0-2c0-1.8,0-4.3-0.1-7.6c0-6.5-0.1-15.8-0.1-27
		l0.2,0.2h-39c0.1-0.1,0.1-0.2,0.2-0.2l0,0v19.7c0,6.3,0,12.2,0,17.6l-0.2-0.2l28.2,0.1l8,0.1h2.1l0,0h-2.1l-7.9,0.1H15.2H15v-0.2
		c0-5.4,0-11.4,0-17.6c0-3.1,0-6.4,0-9.6v-10l0,0c-0.2,0.2,0.3-0.3,0.2-0.2h39.1h0.2v0.2c0,11.2-0.1,20.6-0.1,27.1
		c0,3.2,0,5.8,0,7.6c0,0.9,0,1.5,0,2v0.5C54.3,100.8,54.3,100.8,54.2,100.9z"/>
	<rect x="179.1" y="43.2" class="st0" width="196.4" height="131.6"/>
	<rect x="179.3" y="42.3" class="st1" width="196.4" height="13.1"/>
	<path class="st9" d="M189.6,47.9c0.1,0.9-0.6,1.6-1.5,1.7c-0.9,0.1-1.6-0.6-1.7-1.5c-0.1-0.9,0.6-1.6,1.5-1.7h0.1
		C188.9,46.4,189.6,47,189.6,47.9L189.6,47.9z"/>
	<path class="st9" d="M194.8,47.9c0.1,0.9-0.6,1.6-1.5,1.7c-0.9,0.1-1.6-0.6-1.7-1.5c-0.1-0.9,0.6-1.6,1.5-1.7h0.1
		C194,46.4,194.7,47,194.8,47.9z"/>
	<path class="st9" d="M199.9,47.9c0.1,0.9-0.6,1.6-1.5,1.7c-0.9,0.1-1.6-0.6-1.7-1.5c-0.1-0.9,0.6-1.6,1.5-1.7h0.1
		C199.2,46.4,199.9,47,199.9,47.9L199.9,47.9z"/>
	<path class="st5" d="M375.7,173.8c0,0,0-0.8,0-2.4s0-3.9,0-6.9c0-6.1,0-15-0.1-26.4c0-22.9-0.1-55.7-0.1-95.8l0.2,0.2l-196.4,0.1
		l0,0l0.3-0.3c0,46.9,0,91.4,0,131.6l-0.3-0.3l141.5,0.1l40.4,0.1H372h2.8L375.7,173.8l-0.8-0.1h-2.7h-10.7l-40.4,0.1l-141.7,0.1
		h-0.3v-0.3c0-40.1,0-84.7,0-131.6l0,0h0.3l196.4,0.1h0.2v0.2c0,40.1-0.1,73-0.1,95.9c0,11.4,0,20.3-0.1,26.4c0,3,0,5.3,0,6.9
		S375.7,173.8,375.7,173.8z"/>
	<rect x="192.1" y="115.7" class="st6" width="44.7" height="3"/>
	<rect x="249.7" y="74.2" class="st6" width="44.7" height="3"/>
	<path class="st5" d="M360.9,85.3c0,0.2-24.9,0.3-55.5,0.3s-55.5-0.1-55.5-0.3s24.9-0.3,55.5-0.3S360.9,85.2,360.9,85.3z"/>
	<path class="st5" d="M360.9,91.8c0,0.2-24.9,0.3-55.5,0.3s-55.5-0.1-55.5-0.3s24.9-0.3,55.5-0.3S360.9,91.7,360.9,91.8z"/>
	<path class="st5" d="M360.9,98.4c0,0.2-24.9,0.3-55.5,0.3s-55.5-0.1-55.5-0.3s24.9-0.3,55.5-0.3S360.9,98.2,360.9,98.4z"/>
	<path class="st5" d="M360.9,104.9c0,0.2-24.9,0.3-55.5,0.3s-55.5-0.1-55.5-0.3s24.9-0.3,55.5-0.3S360.9,104.7,360.9,104.9z"/>
	<path class="st5" d="M360.9,111.4c0,0.2-24.9,0.3-55.5,0.3s-55.5-0.1-55.5-0.3s24.9-0.3,55.5-0.3S360.9,111.3,360.9,111.4z"/>
	<path class="st5" d="M293.1,117.9c0,0.2-9.7,0.3-21.7,0.3s-21.7-0.1-21.7-0.3s9.7-0.3,21.7-0.3S293.1,117.8,293.1,117.9z"/>
	<path class="st5" d="M360,130.6c0,0.2-16.3,0.3-36.5,0.3s-36.5-0.1-36.5-0.3s16.3-0.3,36.5-0.3S360,130.4,360,130.6z"/>
	<path class="st5" d="M360,137.5c0,0.2-16.3,0.3-36.5,0.3s-36.5-0.1-36.5-0.3s16.3-0.3,36.5-0.3S360,137.4,360,137.5z"/>
	<path class="st5" d="M360,144.5c0,0.2-16.3,0.3-36.5,0.3s-36.5-0.1-36.5-0.3s16.3-0.3,36.5-0.3S360,144.3,360,144.5z"/>
	<path class="st5" d="M360,151.4c0,0.2-16.3,0.3-36.5,0.3s-36.5-0.1-36.5-0.3s16.3-0.3,36.5-0.3S360,151.2,360,151.4z"/>
	<path class="st5" d="M236.9,129.9c0,0.2-9.8,0.3-21.8,0.3s-21.8-0.1-21.8-0.3s9.7-0.3,21.8-0.3S236.9,129.8,236.9,129.9z"/>
	<path class="st5" d="M236.9,135.4c0,0.2-9.8,0.3-21.8,0.3s-21.8-0.1-21.8-0.3s9.7-0.3,21.8-0.3S236.9,135.2,236.9,135.4z"/>
	<path class="st5" d="M236.9,140.8c0,0.2-9.8,0.3-21.8,0.3s-21.8-0.1-21.8-0.3s9.7-0.3,21.8-0.3S236.9,140.7,236.9,140.8z"/>
	<path class="st5" d="M236.9,146.3c0,0.2-9.8,0.3-21.8,0.3s-21.8-0.1-21.8-0.3s9.7-0.3,21.8-0.3S236.9,146.1,236.9,146.3z"/>
	<path class="st5" d="M236.9,151.7c0,0.2-9.8,0.3-21.8,0.3s-21.8-0.1-21.8-0.3s9.7-0.3,21.8-0.3S236.9,151.5,236.9,151.7z"/>
	<rect x="249.7" y="127.3" class="st6" width="31.7" height="30.7"/>
	<g class="st7">
		<polygon points="252.2,155.3 260.9,139.6 268.1,149.6 272.5,144.3 278.9,155.3 		"/>
	</g>
	<g class="st7">
		<path d="M271.2,136.5c0,1.3-1,2.3-2.3,2.3s-2.3-1-2.3-2.3s1-2.3,2.3-2.3l0,0C270.1,134.2,271.2,135.2,271.2,136.5z"/>
	</g>
	<path class="st8" d="M278.9,155.4v-0.1v-0.4c0-0.3,0-0.8,0-1.4c0-1.2,0-3,0-5.2c0-4.5,0-10.9-0.1-18.5l0.1,0.1h-26.8
		c0,0,0.3-0.3,0.1-0.1l0,0v6.9c0,2.2,0,4.5,0,6.6c0,4.3,0,8.4,0,12.1l-0.1-0.1l19.4,0.1h5.5h1.4H277h-5.4l-19.4,0.1h-0.1v-0.1
		c0-3.7,0-7.8,0-12.1V130l0,0c-0.1,0.1,0.2-0.2,0.1-0.2H279h0.1v0.1c0,7.7,0,14.1-0.1,18.6c0,2.2,0,4,0,5.2c0,0.6,0,1,0,1.4
		c0,0.1,0,0.2,0,0.3C279.1,155.3,279,155.4,278.9,155.4z"/>
	<rect x="69.2" y="14.4" class="st0" width="258.3" height="173"/>
	<rect x="69.5" y="13.2" class="st1" width="258.3" height="17.3"/>
	<path class="st2" d="M83.1,20.6c0.1,1.2-0.8,2.2-1.9,2.2C80,22.9,79,22,79,20.9s0.8-2.2,1.9-2.2c0.1,0,0.1,0,0.2,0
		C82.2,18.6,83.1,19.5,83.1,20.6L83.1,20.6z"/>
	<path class="st3" d="M89.8,20.6c0.1,1.2-0.8,2.2-1.9,2.2c-1.2,0.1-2.2-0.8-2.2-1.9s0.8-2.2,1.9-2.2h0.1
		C88.9,18.6,89.8,19.5,89.8,20.6L89.8,20.6z"/>
	<path class="st4" d="M96.6,20.6c0.1,1.2-0.8,2.2-1.9,2.3c-1.2,0.1-2.2-0.8-2.3-1.9c-0.1-1.2,0.8-2.2,1.9-2.3c0.1,0,0.1,0,0.2,0
		C95.6,18.6,96.6,19.5,96.6,20.6L96.6,20.6z"/>
	<path class="st5" d="M327.8,186.2c0-1.9-0.1-67.6-0.2-173l0.2,0.2L69.5,13.5l0,0l0.3-0.3c0,61.6,0,120.2,0,173l-0.3-0.3
		L327.8,186.2l-258.3,0.3h-0.3v-0.3c0-52.8,0-111.4,0-173v-0.3h0.3L327.8,13h0.2v0.2C327.9,118.6,327.8,184.3,327.8,186.2z"/>
	<rect x="86.3" y="109.7" class="st1" width="58.7" height="3.9"/>
	<rect x="162.1" y="55.2" class="st1" width="58.7" height="3.9"/>
	<path class="st5" d="M308.2,69.8c0,0.1-32.7,0.3-73,0.3s-73.1-0.1-73.1-0.3s32.7-0.3,73.1-0.3S308.2,69.7,308.2,69.8z"/>
	<path class="st5" d="M308.2,78.4c0,0.2-32.7,0.3-73,0.3s-73.1-0.1-73.1-0.3s32.7-0.3,73.1-0.3S308.2,78.2,308.2,78.4z"/>
	<path class="st5" d="M308.2,87c0,0.2-32.7,0.3-73,0.3s-73.1-0.1-73.1-0.3s32.7-0.3,73.1-0.3S308.2,86.8,308.2,87z"/>
	<path class="st5" d="M308.2,95.6c0,0.2-32.7,0.3-73,0.3s-73.1-0.1-73.1-0.3s32.7-0.3,73.1-0.3S308.2,95.4,308.2,95.6z"/>
	<path class="st5" d="M308.2,104.1c0,0.2-32.7,0.3-73,0.3s-73.1-0.1-73.1-0.3s32.7-0.3,73.1-0.3S308.2,104,308.2,104.1z"/>
	<path class="st5" d="M219.2,112.7c0,0.2-12.8,0.3-28.5,0.3s-28.5-0.1-28.5-0.3s12.8-0.3,28.5-0.3S219.2,112.6,219.2,112.7z"/>
	<path class="st5" d="M307.2,129.4c0,0.2-21.5,0.3-48,0.3s-48-0.1-48-0.3s21.5-0.3,48-0.3S307.2,129.2,307.2,129.4z"/>
	<path class="st5" d="M307.2,138.5c0,0.2-21.5,0.3-48,0.3s-48-0.1-48-0.3s21.5-0.3,48-0.3S307.2,138.3,307.2,138.5z"/>
	<path class="st5" d="M307.2,147.6c0,0.2-21.5,0.3-48,0.3s-48-0.1-48-0.3s21.5-0.3,48-0.3S307.2,147.4,307.2,147.6z"/>
	<path class="st5" d="M307.2,156.7c0,0.2-21.5,0.3-48,0.3s-48-0.1-48-0.3s21.5-0.3,48-0.3S307.2,156.5,307.2,156.7z"/>
	<path class="st5" d="M145.2,128.5c0,0.2-12.8,0.3-28.6,0.3S88,128.7,88,128.5s12.8-0.3,28.6-0.3S145.2,128.3,145.2,128.5z"/>
	<path class="st5" d="M145.2,135.6c0,0.2-12.8,0.3-28.6,0.3S88,135.8,88,135.6s12.8-0.3,28.6-0.3S145.2,135.5,145.2,135.6z"/>
	<path class="st5" d="M145.2,142.8c0,0.2-12.8,0.3-28.6,0.3S88,143,88,142.8s12.8-0.3,28.6-0.3S145.2,142.6,145.2,142.8z"/>
	<path class="st5" d="M145.2,149.9c0,0.2-12.8,0.3-28.6,0.3S88,150.1,88,149.9s12.8-0.3,28.6-0.3S145.2,149.8,145.2,149.9z"/>
	<path class="st5" d="M145.2,157.1c0,0.2-12.8,0.3-28.6,0.3S88,157.3,88,157.1s12.8-0.3,28.6-0.3S145.2,156.9,145.2,157.1z"/>
	<rect x="162.1" y="125" class="st1" width="41.7" height="40.3"/>
	<g class="st7">
		<polygon points="165.4,161.9 176.9,141.1 186.3,154.4 192,147.4 200.6,161.9 		"/>
	</g>
	<g class="st7">
		<path d="M190.3,137.1c0,1.7-1.3,3-3,3s-3-1.3-3-3s1.3-3,3-3l0,0C189,134.1,190.3,135.4,190.3,137.1z"/>
	</g>
	<path class="st8" d="M200.6,162c0,0,0-0.1,0-0.2s0-0.3,0-0.5c0-0.4,0-1,0-1.8c0-1.6,0-3.9,0-6.8c0-5.9,0-14.3-0.1-24.4l0.2,0.2
		h-35.2l0.2-0.2l0,0V146c0,5.6,0,11,0,15.9l-0.2-0.2l25.5,0.1h7.2h1.9h0.7c0,0,0,0-0.1,0H200h-1.9H191l-25.6,0.1h-0.2l0,0
		c0-4.9,0-10.2,0-15.9v-17.8l0,0c-0.2,0.2,0.2-0.2,0.2-0.2h35.2h0.2v0.2c0,10.1-0.1,18.5-0.1,24.4c0,2.9,0,5.2,0,6.8
		c0,0.8,0,1.4,0,1.8c0,0.2,0,0.3,0,0.5S200.6,162,200.6,162z"/>
	<rect x="83.9" y="43.9" class="st1" width="58.9" height="57"/>
	<g class="st7">
		<polygon points="88.5,96 104.7,66.7 118.1,85.5 126.2,75.5 138.2,96 		"/>
	</g>
	<g class="st7">
		<path d="M123.7,61c0,2.3-1.9,4.2-4.2,4.2s-4.2-1.9-4.2-4.2s1.9-4.2,4.2-4.2C121.8,56.8,123.7,58.7,123.7,61
			C123.8,61,123.8,61,123.7,61z"/>
	</g>
	<path class="st8" d="M138.2,96.2c0-0.1,0-0.2,0-0.2c0-0.2,0-0.4,0-0.7c0-0.6,0-1.5,0-2.6c0-2.3,0-5.5-0.1-9.7
		c0-8.3-0.1-20.2-0.1-34.4l0.2,0.2H88.5l0.3-0.3l0,0v12.8c0,4.2,0,8.3,0,12.3c0,8,0,15.5,0,22.5l-0.2-0.2l36,0.1l10.2,0.1h2.7
		L138.2,96.2L138.2,96.2l-0.7-0.1h-2.6l-10.1,0.1l-36.1,0.1h-0.2V96c0-6.9,0-14.5,0-22.5v-12c0-2.1,0-4.2,0-6.4v-6.4l0,0
		c-0.2,0.2,0.3-0.4,0.3-0.3h49.7h0.2v0.2c0,14.3-0.1,26.2-0.1,34.6c0,4.1,0,7.4-0.1,9.6c0,1.1,0,1.9,0,2.5c0,0.3,0,0.5,0,0.6
		C138.3,96,138.3,96.1,138.2,96.2z"/>
</g>
<g id="freepik--character-2--inject-80">
	<path class="st6" d="M297.9,191.6L297,203c0,0-11.2,3.6-11.3,5.7l21.9,0.3l0.6-17.4H297.9z"/>
	<path class="st10" d="M303.8,201.8c0.4,0.1,0.7,0.6,0.7,1c-0.1,0.4-0.5,0.7-1,0.7c-0.5-0.1-0.8-0.6-0.7-1.1
		C302.9,202,303.4,201.7,303.8,201.8"/>
	<path class="st10" d="M307.7,209v-1.8l-20.8,0.1c0,0-1.2,0.7-1.2,1.4L307.7,209z"/>
	<path class="st5" d="M296.7,202.9c0,0.1,0.6,0.1,1.1,0.5c0.6,0.3,0.8,0.8,0.9,0.7s-0.1-0.7-0.7-1
		C297.3,202.6,296.7,202.8,296.7,202.9z"/>
	<path class="st5" d="M294.4,203.9c0,0.1,0.4,0.3,0.8,0.7s0.5,0.9,0.6,0.9s0.2-0.6-0.3-1.2S294.4,203.8,294.4,203.9z"/>
	<path class="st5" d="M293.2,206.7c0.1,0,0.2-0.5-0.1-1.1c-0.3-0.6-0.8-0.8-0.8-0.7s0.3,0.4,0.5,0.9
		C293,206.2,293.1,206.7,293.2,206.7z"/>
	<path class="st5" d="M296.8,200.3c0,0.1,0.6-0.1,1.1,0c0.6,0,1.1,0.2,1.1,0.1c0-0.1-0.4-0.5-1.1-0.5
		C297.3,199.9,296.7,200.2,296.8,200.3z"/>
	<path class="st5" d="M296.7,198c0.4,0.1,0.7,0.1,1.1,0s0.8-0.2,1.1-0.4c0.2-0.1,0.4-0.2,0.6-0.4c0.1-0.1,0.2-0.2,0.3-0.3
		c0.1-0.2,0.1-0.4,0-0.6c-0.1-0.1-0.3-0.2-0.5-0.2c-0.1,0-0.3,0-0.4,0.1c-0.2,0.1-0.5,0.1-0.7,0.3c-0.4,0.2-0.7,0.4-1,0.7
		C296.8,197.7,296.7,198.1,296.7,198c0.1,0.1,0.3-0.2,0.8-0.6c0.3-0.2,0.6-0.4,1-0.6c0.2-0.1,0.4-0.2,0.6-0.2c0.2-0.1,0.4-0.1,0.5,0
		s0,0.1,0,0.1c-0.1,0.1-0.2,0.1-0.2,0.2c-0.2,0.1-0.4,0.2-0.6,0.3c-0.3,0.2-0.7,0.3-1,0.4C297.4,197.8,297,197.9,296.7,198z"/>
	<path class="st5" d="M296.8,198.2c0.2-0.3,0.3-0.7,0.3-1.1c0-0.4-0.1-0.8-0.2-1.2c-0.1-0.2-0.2-0.4-0.3-0.7
		c-0.1-0.3-0.4-0.5-0.7-0.6c-0.2,0-0.4,0.1-0.4,0.3c-0.1,0.1-0.1,0.3-0.1,0.4c0,0.2,0,0.5,0,0.7c0.1,0.4,0.2,0.8,0.5,1.1
		c0.4,0.6,0.9,0.7,0.9,0.6c0,0-0.3-0.3-0.7-0.8c-0.2-0.3-0.3-0.7-0.4-1c0-0.2,0-0.4,0-0.6c0-0.2,0.1-0.4,0.2-0.4s0.3,0.2,0.4,0.3
		c0.1,0.2,0.2,0.4,0.3,0.6c0.1,0.4,0.2,0.7,0.2,1.1C296.9,197.7,296.8,198.1,296.8,198.2z"/>
	<path class="st6" d="M345.4,189.8l2.5,13.3l5,9.9c0.3,0.7,0.1,1.5-0.6,1.9h-0.1l0,0c-0.4,0.2-0.9,0.1-1.3-0.1
		c-2.4-1.5-11.3-7-11.5-8c-0.1-1.1-3.6-13.8-3.6-13.8L345.4,189.8z"/>
	<path class="st10" d="M352.2,214.8l-12.9-9l0.1,0.6c0.1,0.5,0.4,0.9,0.8,1.2c1.1,0.8,4,3,10.7,7.2C351.3,215,351.8,215,352.2,214.8
		L352.2,214.8z"/>
	<path class="st10" d="M341.1,201.9c0.4,0.2,0.6,0.6,0.5,1c-0.2,0.4-0.6,0.6-1,0.5c-0.4-0.2-0.6-0.7-0.5-1.1
		C340.3,201.9,340.8,201.7,341.1,201.9"/>
	<path class="st5" d="M348,209.7c0.2-0.5,0.5-0.9,0.9-1.3c0.4-0.3,0.9-0.5,1.5-0.6c0,0-0.2-0.1-0.5-0.1c-0.4,0-0.8,0.2-1.1,0.5
		c-0.3,0.3-0.6,0.6-0.7,1C347.9,209.5,347.9,209.7,348,209.7z"/>
	<path class="st5" d="M349.3,211.3c0.1,0,0.4-0.5,1-0.8c0.4-0.2,0.8-0.3,1.2-0.4c-0.5-0.2-1-0.1-1.4,0.2
		C349.5,210.6,349.2,211.2,349.3,211.3z"/>
	<path class="st5" d="M345.7,207.8c0.5-0.5,1-1,1.5-1.4c0.6-0.3,1.2-0.6,1.9-0.9C347.6,205.6,346.3,206.5,345.7,207.8z"/>
	<path class="st5" d="M344.6,203.8c0,0.1,0.7-0.4,1.7-0.6c0.9-0.2,1.7-0.2,1.8-0.3C346.8,202.6,345.5,202.9,344.6,203.8L344.6,203.8
		z"/>
	<path class="st5" d="M343.8,200c0.5-0.3,1.1-0.5,1.7-0.7c0.6-0.1,1.2,0,1.8,0.1c0,0-0.2-0.2-0.5-0.3c-0.9-0.3-1.9-0.1-2.7,0.5
		C343.9,199.8,343.8,199.9,343.8,200z"/>
	<path class="st5" d="M345.3,198.5c0,0,0-0.2-0.1-0.5c-0.1-0.4-0.4-0.9-0.7-1.2c-0.2-0.3-0.5-0.5-0.8-0.6c-0.2,0-0.5,0.1-0.6,0.2
		c-0.1,0.2-0.1,0.4-0.1,0.6c0.3,0.9,1.1,1.5,2.1,1.4c0.9-0.1,1.7-0.7,1.9-1.6c0.1-0.2,0-0.5-0.1-0.7c-0.2-0.2-0.4-0.2-0.6-0.2
		c-0.3,0.1-0.6,0.4-0.8,0.6c-0.3,0.4-0.5,0.8-0.7,1.2c-0.1,0.2-0.1,0.3-0.1,0.5c0.2-0.6,0.6-1.1,0.9-1.6c0.2-0.2,0.4-0.4,0.7-0.6
		c0.1,0,0.3,0,0.3,0.1c0.1,0.1,0.1,0.3,0,0.4c-0.2,0.7-0.9,1.3-1.7,1.4c-0.8,0.1-1.5-0.4-1.8-1.2c0-0.2,0-0.3,0-0.5
		c0.1-0.1,0.2-0.2,0.3-0.1c0.3,0.1,0.5,0.3,0.7,0.5C344.8,197.4,345.1,198,345.3,198.5z"/>
	<path class="st5" d="M297.8,87.4c-0.1,0-1.8,111.2-1.8,111.2l13.4-0.5l4.6-54.7l1.1-40.1l9.2,37.1l11.4,58.2l13.4-3.4L332,86.7
		l-16-3.1L297.8,87.4z"/>
	<path class="st5" d="M327,18.7c1.6-3.2,2.1-8.9,0.3-12c-1.8-3.2-5.6-5.4-9.1-6.5c-0.6-0.2-1.2-0.3-1.8-0.1c-0.6,0.2-1,0.8-0.9,1.4
		c-0.7-0.5-1.4-1-2.2-1.3c-0.8-0.3-1.7-0.2-2.4,0.3c-0.7,0.6-0.8,1.6-0.2,2.2l0,0c-1.4-0.6-3,0-3.6,1.4c-0.3,0.6-0.3,1.3-0.1,1.9
		c0.4,1,1,2,1.8,2.8c0.7,0.7,0.8,1.5,0.6,2.5"/>
	<path class="st11" d="M313.7,44.8c0.1-1.5,0.3-15.3,0.3-15.4s-5.1-0.6-5.3-5.7c-0.1-2.5,0.1-7.5,0.3-12.1c0.2-4.9,4.2-8.9,9.2-9
		h0.5c5.3,0.1,8.1,4.7,7.9,10l-0.7,29.5"/>
	<path class="st12" d="M314.1,29.5c2.4-0.1,4.6-0.8,6.6-2.2c0,0-1.5,3.2-6.6,2.9V29.5z"/>
	<path class="st5" d="M309.9,15.1c0,0.4,0.3,0.7,0.7,0.7c0.4,0,0.7-0.3,0.7-0.7l0,0c0-0.4-0.3-0.7-0.7-0.7l0,0
		C310.3,14.4,310,14.7,309.9,15.1L309.9,15.1z"/>
	<path class="st5" d="M310.2,14.1c0.1,0.1,0.6-0.3,1.4-0.4c0.8,0,1.4,0.4,1.4,0.3c0.1-0.1-0.1-0.2-0.3-0.4c-0.3-0.2-0.7-0.3-1.2-0.3
		c-0.4,0-0.8,0.2-1.1,0.4C310.3,13.9,310.2,14,310.2,14.1z"/>
	<path class="st5" d="M317.7,15.2c0,0.4,0.3,0.7,0.7,0.7c0.4,0,0.7-0.3,0.7-0.7l0,0c0-0.4-0.3-0.7-0.7-0.7
		C318.1,14.5,317.8,14.8,317.7,15.2z"/>
	<path class="st5" d="M317.9,14c0.1,0.1,0.6-0.3,1.4-0.4c0.8,0,1.4,0.4,1.4,0.3c0.1-0.1-0.1-0.2-0.3-0.4c-0.3-0.2-0.8-0.3-1.2-0.3
		c-0.4,0-0.8,0.2-1.1,0.4C318,13.8,317.9,13.9,317.9,14z"/>
	<path class="st5" d="M315.3,19.9c-0.4-0.1-0.8-0.2-1.3-0.2c-0.2,0-0.4,0-0.4-0.2s0-0.4,0.1-0.6l0.6-1.5c0.8-2.2,1.3-4,1.2-4
		s-0.8,1.7-1.5,3.9c-0.2,0.6-0.4,1.1-0.5,1.5c-0.1,0.2-0.2,0.5-0.1,0.8c0.1,0.1,0.2,0.2,0.3,0.3c0.1,0,0.2,0,0.3,0
		C314.4,20,314.8,19.9,315.3,19.9z"/>
	<path class="st5" d="M317.6,20.4c-0.1,0-0.1,0.8-0.8,1.5c-0.7,0.6-1.6,0.6-1.6,0.7s0.2,0.2,0.6,0.2c0.5,0,1-0.2,1.4-0.5
		s0.6-0.8,0.6-1.2C317.7,20.6,317.6,20.3,317.6,20.4z"/>
	<path class="st5" d="M317.6,10.9c0.1,0.2,0.9,0.1,1.8,0.2c0.9,0.1,1.7,0.3,1.8,0.1c0.1-0.1-0.1-0.3-0.4-0.5
		c-0.4-0.2-0.9-0.4-1.3-0.4c-0.5,0-0.9,0-1.4,0.2C317.8,10.7,317.6,10.8,317.6,10.9z"/>
	<path class="st5" d="M310.4,11.8c0.1,0.2,0.7,0,1.3-0.1s1.2,0.1,1.3-0.1c0-0.1,0-0.3-0.3-0.4c-0.3-0.2-0.7-0.3-1.1-0.3
		s-0.7,0.2-1,0.4C310.4,11.5,310.4,11.7,310.4,11.8z"/>
	<path class="st11" d="M326.3,16.4c0.1,0,3.5-1.1,3.5,2.3s-3.5,2.8-3.5,2.7C326.2,21.3,326.3,16.4,326.3,16.4z"/>
	<path class="st12" d="M327.3,20.1c0,0,0.1,0,0.2,0.1s0.3,0.1,0.5,0c0.5-0.3,0.7-0.8,0.7-1.3c0-0.3-0.1-0.6-0.2-0.9
		c-0.1-0.2-0.2-0.4-0.5-0.5c-0.1,0-0.3,0-0.4,0.2c0,0.1,0,0.2,0,0.2s-0.1-0.1,0-0.2c0-0.1,0.1-0.2,0.1-0.2c0.1-0.1,0.2-0.1,0.3-0.1
		c0.3,0.1,0.5,0.3,0.6,0.6c0.1,0.3,0.2,0.6,0.2,1c0,0.6-0.3,1.2-0.9,1.5c-0.2,0.1-0.4,0-0.6-0.1C327.3,20.2,327.3,20.1,327.3,20.1z"
		/>
	<path class="st5" d="M306.8,5c-0.4,4.5,5.2,6.4,7.6,3.9c1.1-1.2,2.1-2.6,3.6-3.1c1.1-0.3,2.2-0.2,3.2,0.3l0,0
		c1.4,0.7,2.3,2.4,2.5,4c0.3,2.2,0,4.2,0.6,6.3c0.1,0.3,0.2,0.6,0.4,0.8c0.5,0.2,1.1,0.1,1.4-0.3c0.5-0.7,0.8-1.5,0.9-2.3
		c0.3-1.9,0.2-3.8-0.2-5.6c-0.5-2-1.4-3.7-2.8-5c-1.8-1.6-4.2-2.4-6.6-2.2c-2.4,0.1-4.7,1-6.5,2.6c-0.9,0.7-1.6,1.5-2.1,2.5"/>
	<path class="st13" d="M310.5,2.6c-0.2,0-0.3,0-0.5,0c-0.4,0.1-0.8,0.3-1.1,0.6c-0.5,0.5-0.8,1.1-0.9,1.8c-0.1,0.8,0.2,1.6,0.7,2.3
		s1.1,1.2,1.9,1.5c0.6,0.2,1.2,0.4,1.9,0.4c0.4,0,0.9,0,1.3,0c0.2,0,0.3,0,0.5-0.1c0,0-0.7,0-1.8-0.1c-0.6-0.1-1.2-0.2-1.8-0.5
		c-0.7-0.3-1.3-0.8-1.8-1.4c-0.4-0.6-0.7-1.3-0.6-2.1c0.1-0.6,0.3-1.2,0.8-1.7c0.3-0.3,0.6-0.5,1-0.7C310.4,2.6,310.5,2.6,310.5,2.6
		z"/>
	<path class="st13" d="M312.9,1c0,0-0.1,0-0.3,0.1c-0.3,0.2-0.5,0.4-0.6,0.7c-0.1,0.5,0,0.9,0.3,1.3c0.3,0.5,0.6,0.9,1,1.3
		c0.7,0.7,1.5,1.3,2.5,1.6c0.4,0.2,0.8,0.2,1.2,0.2c0,0-0.5-0.1-1.1-0.4c-0.9-0.4-1.7-0.9-2.4-1.6c-0.4-0.4-0.7-0.8-0.9-1.3
		c-0.2-0.4-0.3-0.8-0.3-1.2c0-0.3,0.2-0.5,0.4-0.7C312.7,1,312.9,1,312.9,1z"/>
	<path class="st11" d="M282.5,46.1l-24-2.3l-3.8-0.9c0,0-8.7-1.5-9.5-1.8c-0.9-0.3-1.3,0.1-1.4,0.4c-0.1,0.6,0.4,1.1,1.2,1.4
		c0.3,0.1,4.7,1.4,4.7,1.4c-0.5,0.1-1,0.3-1.5,0.5c-1,0.4-2,1.8-2.4,3.4c-0.4,1.6-0.4,2.1,0.2,2.3c0.2,0.1,0.5,0,0.7-0.1
		c0.3-0.2,0.6-0.5,0.7-0.9c0.7-2.5,2.3-2.8,2.3-2.8l0.5,0.1c0,0-1.6,1.2-1.5,2.5c0,0.2,0.1,0.4,0.1,0.6c-0.4,1.1,0.2,2.2,1.3,2.6
		c0.4,0.1,0.8,0.1,1.1,0.1c0.3-0.1,0.7-0.3,0.7-0.6c0-0.2,0-0.4-0.1-0.6c0-0.1-0.1-0.2-0.1-0.3l1.4,0.1c0,0,3.2,0.1,4.6,0.4
		l22.6,5.8c3.1,0.8,6.2-1.1,7-4.1v-0.1l0,0c0.7-3.1-1.2-6.2-4.3-7C283.1,46.2,282.8,46.1,282.5,46.1z"/>
	<path class="st11" d="M258,44.4c-0.1,0.5-0.5,0.9-1,1s-1,0.1-1.5,0.2c-1.5,0.3-2.6,1.7-4.1,1.8c-0.2,0-0.5,0-0.6-0.2
		s0.1-0.4,0.2-0.5l3.6-3.4"/>
	<path class="st12" d="M254.8,43.3c-0.2,0.1-0.3,0.2-0.4,0.3c-0.3,0.2-0.6,0.6-1.1,1l-1.6,1.5c-0.1,0.1-0.3,0.3-0.5,0.4
		c-0.2,0.1-0.4,0.3-0.4,0.6c0,0.2,0.1,0.3,0.3,0.4c0.1,0,0.3,0.1,0.4,0c0.2,0,0.5-0.1,0.7-0.2c0.8-0.4,1.6-0.8,2.3-1.3
		c0.3-0.2,0.7-0.3,1-0.4c0.3-0.1,0.7-0.1,1-0.1c0.5,0,1-0.2,1.3-0.6c0.1-0.2,0.2-0.4,0.1-0.6c-0.1,0.2-0.1,0.3-0.2,0.5
		c-0.3,0.3-0.8,0.5-1.3,0.5c-0.3,0-0.7,0-1,0.1c-0.4,0.1-0.8,0.2-1.1,0.4c-0.7,0.5-1.5,0.9-2.3,1.3c-0.2,0.1-0.4,0.1-0.6,0.2
		c-0.2,0-0.4,0-0.4-0.2c0-0.1,0.2-0.3,0.3-0.4s0.3-0.3,0.5-0.4l1.5-1.5c0.4-0.4,0.8-0.8,1-1C254.6,43.4,254.8,43.3,254.8,43.3z"/>
	<path class="st12" d="M250.3,46.7c-0.3-0.1-0.6-0.1-0.9,0c-0.3,0.1-0.6,0.3-0.8,0.6s-0.4,0.7-0.6,1.1c-0.1,0.4-0.3,0.8-0.5,1.2
		c-0.2,0.3-0.4,0.6-0.8,0.8c-0.2,0.1-0.5,0.1-0.7,0s-0.2-0.2-0.2-0.2s0.1,0,0.2,0.1c0.2,0.1,0.5,0,0.6-0.1c0.3-0.2,0.5-0.4,0.7-0.8
		c0.2-0.4,0.3-0.8,0.5-1.2c0.1-0.4,0.3-0.8,0.6-1.2c0.2-0.3,0.5-0.5,0.9-0.6c0.2-0.1,0.5-0.1,0.7,0
		C250.2,46.6,250.2,46.7,250.3,46.7z"/>
	<path class="st12" d="M244.8,42.8c0.3,0.1,0.6,0.1,0.9,0.3l2.1,0.7l2.1,0.6c0.3,0.1,0.6,0.2,0.9,0.3c-0.3,0-0.6-0.1-0.9-0.2
		c-0.6-0.1-1.3-0.3-2.1-0.6s-1.6-0.5-2.1-0.7C245.3,43.1,245.1,43,244.8,42.8z"/>
	<path class="st12" d="M251,48c0,0-0.1,0.1-0.2,0.2c-0.2,0.2-0.3,0.4-0.2,0.7c0,0.2,0.1,0.3,0.3,0.3c0.2,0.1,0.4,0.1,0.6,0.1
		c0.2,0,0.5,0.1,0.7,0.3s0.2,0.5,0.1,0.8c-0.1,0.3-0.3,0.5-0.5,0.6s-0.5,0.2-0.7,0.1c-0.4-0.1-0.8-0.2-1.1-0.4
		c-0.2-0.1-0.5-0.3-0.7-0.4c-0.1-0.1-0.1-0.2-0.2-0.2c0,0,0.1,0.1,0.2,0.2c0.2,0.2,0.4,0.3,0.7,0.4c0.4,0.2,0.7,0.3,1.1,0.3
		c0.4,0.1,0.9-0.2,1-0.6c0.1-0.2,0-0.4-0.1-0.6c-0.1-0.2-0.3-0.2-0.6-0.3c-0.2,0-0.4-0.1-0.6-0.2c-0.2-0.1-0.3-0.3-0.4-0.5
		C250.5,48.6,250.7,48.2,251,48L251,48z"/>
	<path class="st12" d="M251.6,51c0,0,0.1,0,0.2,0.1c0.2,0.2,0.3,0.4,0.3,0.7c0,0.4-0.3,0.7-0.6,0.9c-0.4,0.2-0.9,0.2-1.3,0.1
		c-0.4-0.1-0.8-0.4-1.1-0.7c-0.2-0.3-0.3-0.6-0.4-1c0-0.2,0-0.5,0-0.7s0.1-0.2,0.1-0.2c0,0.3,0,0.6,0,0.9c0.1,0.3,0.2,0.6,0.4,0.9
		c0.3,0.3,0.6,0.5,1,0.7c0.4,0.1,0.8,0.1,1.2,0c0.3-0.1,0.5-0.4,0.6-0.7c0-0.2-0.1-0.4-0.2-0.6C251.7,51,251.6,51,251.6,51z"/>
	<path class="st12" d="M255.5,48.9c0-0.1,0.1-0.3,0.1-0.4c0.2-0.3,0.5-0.6,0.8-0.7V48c-0.2-0.1-0.4-0.2-0.6-0.3
		c-0.6-0.3-1.2-0.9-1.6-1.5c0.5,0.5,1.1,0.9,1.7,1.3c0.2,0.1,0.4,0.2,0.6,0.3l0.2,0.1l-0.2,0.1c-0.3,0.1-0.6,0.4-0.8,0.6
		C255.6,48.7,255.5,48.9,255.5,48.9z"/>
	<path class="st12" d="M248,46.6c0,0,0.3,0.2,0.3,0.7c0,0.4-0.1,0.8-0.2,0.7c0,0,0.1-0.3,0-0.7C248.1,46.9,247.9,46.7,248,46.6z"/>
	<path class="st3" d="M282.9,57.8l15.6-3.6c0,0-0.8,28.6-0.8,28.9c0,0.3-1.3,0.7-1.2,2.8l1.1,2.5l34.3,0.5l0.9-27.8l3.1-21.6
		l-7.2-4.4l-2.5-3.5L316.4,42l-2.5-8.9l0.1-2.6l-2.4,2.7L298.4,37L281,45l-11.8-0.9l-3.1,10.3L282.9,57.8z"/>
	<path class="st5" d="M315.1,38.8c-0.3,0.2-0.6,0.5-0.7,0.8c-0.2,0.4-0.2,0.8-0.2,1.2c0,0.6-0.1,1.1-0.2,1.7l-0.1,0.3l-0.1-0.3
		c-0.3-0.8-0.6-1.7-0.8-2.5c-0.4-1.8-0.7-3.4-0.9-4.6c-0.1-0.6-0.2-1.3-0.2-1.9c0.2,0.6,0.3,1.3,0.4,1.9c0.2,1.2,0.6,2.8,0.9,4.6
		c0.2,0.8,0.4,1.7,0.7,2.5h-0.2c0.2-0.5,0.3-1,0.3-1.5c0-0.4,0.1-0.9,0.3-1.3c0.1-0.3,0.3-0.5,0.6-0.6
		C314.8,38.8,315,38.8,315.1,38.8z"/>
	<path class="st5" d="M327.7,34.4c-0.1,0.2-0.2,0.3-0.3,0.5c-0.2,0.3-0.6,0.7-1,1.2c-0.9,1-2,2.5-3.4,4l-2.1,2.4l-0.2,0.2l-0.1-0.2
		c-0.3-1.2-0.6-2.2-0.7-2.9c-0.1-0.4-0.3-0.6-0.5-0.6c-0.1,0-0.2,0-0.3,0.1c0,0,0-0.1,0.3-0.2c0.1,0,0.3,0.1,0.4,0.1
		c0.1,0.1,0.2,0.3,0.2,0.5c0.2,0.7,0.5,1.7,0.8,2.9h-0.2l2.1-2.5c1.3-1.6,2.5-3,3.4-4c0.4-0.5,0.8-0.9,1.1-1.2
		C327.6,34.5,327.7,34.4,327.7,34.4z"/>
	<path class="st5" d="M313.2,80.2c0-0.1,0-0.2,0-0.4c0-0.3,0-0.6,0-1.1c0-0.9,0-2.3,0-3.9c0-3.3,0.2-7.9,0.6-12.9s0.9-9.6,1.4-12.8
		c0.2-1.7,0.4-3,0.6-3.9l0.2-1c0-0.1,0-0.2,0.1-0.4c0,0.1,0,0.2,0,0.4c0,0.3-0.1,0.6-0.1,1.1c-0.1,1-0.3,2.3-0.5,3.9
		c-0.4,3.3-0.9,7.8-1.3,12.8s-0.6,9.6-0.7,12.9c0,1.6-0.1,3-0.1,3.9c0,0.4,0,0.8,0,1.1C313.2,79.9,313.2,80.1,313.2,80.2z"/>
	<path class="st5" d="M310.4,86.9c-0.2-0.8-0.3-1.6-0.3-2.5c0-0.8,0.1-1.7,0.3-2.5c0.1,0.8,0.1,1.6,0,2.5
		C310.4,85.8,310.5,86.9,310.4,86.9z"/>
	<path class="st5" d="M324.4,78.8c-0.3,0.1-0.6,0.2-0.9,0.3c-0.6,0.2-1.4,0.5-2.5,0.8c-2.7,0.8-5.5,1.4-8.3,1.9s-5.6,0.9-8.4,1.1
		c-1.1,0.1-2,0.1-2.6,0.1c-0.3,0-0.6,0-0.9,0c0.3-0.1,0.6-0.1,0.9-0.1l2.6-0.2c2.2-0.2,5.1-0.6,8.4-1.1s6.2-1.3,8.3-1.8l2.5-0.7
		C323.8,79,324.1,78.9,324.4,78.8z"/>
	<path class="st5" d="M298.4,60.2c-0.1,0-0.1-4.1-0.1-9.1s0.1-9.1,0.2-9.1s0.1,4.1,0.1,9.1C298.6,56.2,298.5,60.2,298.4,60.2z"/>
	<path class="st3" d="M335.4,39c0,0,4.3,3.7,4.6,5.8c0.2,1.6,4.5,16.8,6.4,23.7c0.6,2.1,0.5,4.4-0.4,6.4l-5.5,13.6l-8.9-5.3
		l4.5-12.8l-3.7-10.9L335.4,39z"/>
	<path class="st5" d="M340.5,88.6c-0.1,0-0.1,0-0.2-0.1l-0.5-0.3l-1.8-1l-6.6-3.8h-0.1v-0.1c1.2-3.6,2.8-8,4.4-12.8v0.1
		c-0.5-1.4-1.1-2.9-1.6-4.4c-1.3-3.5-2.6-6.9-3.7-9.9l0,0c-1.1-2.4-2.1-4.7-2.4-6.9c-0.1-1-0.1-2.1,0.1-3.1c0.2-0.9,0.5-1.7,0.9-2.5
		c0.6-1.1,1.4-2.1,2.3-2.9c0.2-0.2,0.5-0.4,0.8-0.6c0.1-0.1,0.2-0.1,0.3-0.2c-0.1,0.1-0.2,0.2-0.3,0.2c-0.2,0.1-0.4,0.3-0.7,0.6
		c-0.9,0.8-1.6,1.8-2.2,2.9c-0.4,0.8-0.7,1.6-0.9,2.4c-0.2,1-0.2,2-0.1,3c0.3,2.1,1.3,4.4,2.4,6.8l0,0l3.7,9.9
		c0.6,1.5,1.1,3,1.6,4.4l0,0l0,0c-1.7,4.8-3.2,9.2-4.5,12.8V83l6.5,3.9l1.8,1.1l0.5,0.3C340.4,88.5,340.5,88.6,340.5,88.6z"/>
	<g class="st7">
		<path d="M317.5,41c0.6,0,1.2,0.4,1.3,1c0.1,0.6,0,1.2,0.2,1.8s0.7,1.2,1.3,1c0.4-0.1,0.7-0.3,0.8-0.7c1.2-1.6,2.1-3.3,2.8-5.1
			l-3.1,3.5c-0.1-0.9-0.3-1.7-0.7-2.6c-0.1-0.3-0.2-0.7-0.5-0.8c-0.4-0.2-1,0.4-1.2,0.8C318.1,40.3,317.8,40.7,317.5,41"/>
	</g>
	<g class="st7">
		<path d="M312.5,37.9c0.1,1.9,0.4,3.9,1.1,5.7c0.1,0.2,0.2,0.4,0.3,0.5c0.1,0.1,0.4,0.2,0.6,0.1c0.2-0.4,0.4-0.8,0.6-1.2
			c0.3-0.8,1.4-0.9,1.4-0.9c-0.2-0.9-0.4-1.8-0.8-2.6c-0.1-0.3-0.4-0.5-0.7-0.5c-0.4,0.1-0.7,0.5-0.8,0.9c-0.2,1.4-0.1,2.1-0.4,2.6
			C313.3,41,312.9,39.2,312.5,37.9"/>
	</g>
	<g class="st7">
		<path d="M321,79.8c0.5-0.4,0.7-1.1,0.3-1.7l0,0c-0.4-0.5-1.1-0.8-1.7-0.7c-0.6,0.1-1.2,0.4-1.7,0.8s-1,0.8-1.6,1.2
			c-1.4,0.8-3,1-4.6,1c-1.6-0.1-3.2,0-4.8,0.2c-1.6,0.3-3.1,1.1-3.9,2.5C303,83.1,316.6,82.1,321,79.8z"/>
	</g>
	<path class="st11" d="M329.8,99.7c-1.5-0.9-2.7-2.2-3.6-3.7v-0.1l-0.1-0.1c-0.4-0.6-0.7-1.2-1-1.8c1.1-0.7,2.6-1.8,1-2
		c-1.9-0.3-3.3-1.2-3.5-1.7c-0.1-0.3,0.1-0.7,0.4-0.8c0.2,0,0.4,0,0.5,0.1c0.6,0.3,1.2,0.5,1.9,0.6c0.5,0.1,1.1,0.2,1.6,0.1
		c0.3,0,1.5-0.8,2.7-1.4c0.2-0.1,0.4-0.1,0.6-0.1h0.5c0.5,0,1-0.3,1.2-0.8l1.8-3.4l5.4,3.2l-4.3,5.9
		C333.3,95.8,331.6,97.8,329.8,99.7z"/>
	<path class="st13" d="M331,100.3c-0.4-0.1-0.9-0.3-1.2-0.6c-1-0.6-1.8-1.3-2.6-2.1c-0.7-0.8-1.4-1.8-1.8-2.8
		c-0.2-0.4-0.4-0.9-0.4-1.3C326.1,96.4,328.2,98.8,331,100.3L331,100.3z"/>
	<path class="st13" d="M313.9,103.8c0,0-0.1,0-0.2,0c-0.1-0.1-0.3-0.2-0.4-0.2c-0.4-0.4-0.7-0.9-0.9-1.4c-0.2-0.8-0.4-1.6-0.6-2.4
		c-0.2-0.9-0.4-1.9-0.6-2.9c-0.4-2.1-0.7-4-0.9-5.3c-0.1-0.7-0.2-1.2-0.2-1.6c0-0.2,0-0.4,0-0.6c0.1,0.2,0.1,0.4,0.1,0.6l0.3,1.6
		c0.3,1.4,0.6,3.2,1,5.3c0.2,1,0.4,2,0.6,2.9s0.3,1.7,0.6,2.4c0.1,0.5,0.4,1,0.8,1.4C313.7,103.7,313.9,103.8,313.9,103.8z"/>
	<path class="st13" d="M313.4,91.4c0,0,0.1,0,0.2,0c0.2,0.1,0.4,0.2,0.5,0.4c0.2,0.3,0.2,0.7-0.1,1c-0.3,0.4-0.7,0.5-1.2,0.4
		c-0.4-0.1-0.7-0.5-0.8-0.9c0-0.4,0.1-0.7,0.3-1c0.5-0.4,0.9-0.3,0.9-0.3c-0.3,0.1-0.5,0.2-0.7,0.4c-0.2,0.2-0.3,0.5-0.2,0.8
		c0.1,0.3,0.3,0.6,0.6,0.7c0.3,0.1,0.7-0.1,0.9-0.3c0.2-0.2,0.2-0.5,0.1-0.8C313.8,91.5,313.4,91.5,313.4,91.4z"/>
	<path class="st13" d="M301.7,89.2c0.1,0.4,0.2,0.8,0.1,1.3c-0.1,2.1-1.1,4.1-2.9,5.3c-0.3,0.3-0.7,0.4-1.1,0.6c0,0,0.4-0.3,1-0.7
		c1.6-1.3,2.6-3.1,2.8-5.2C301.7,89.7,301.6,89.2,301.7,89.2z"/>
	<path class="st5" d="M280.2,50.4c0-0.9,0.1-1.9,0.3-2.8c0.1-0.9,0.2-1.8,0.4-2.7c0.1,0.9,0,1.9-0.1,2.8
		C280.7,48.6,280.6,49.5,280.2,50.4z"/>
	<path class="st5" d="M269.2,44.1c0,0.1,0,0.1,0,0.2c0,0.1-0.1,0.3-0.1,0.6c-0.1,0.5-0.3,1.2-0.6,2.1l-2.2,7.5l-0.1-0.2
		c3.1,0.8,6.9,1.4,10.9,2.1c2,0.4,3.9,0.8,5.7,1.2h-0.1l11.2-2.5l3.3-0.7l0.9-0.2c0.1,0,0.2,0,0.3,0c-0.1,0-0.2,0.1-0.3,0.1
		l-0.9,0.2l-3.2,0.8L282.8,58h-0.1c-1.8-0.4-3.7-0.8-5.7-1.2c-4-0.7-7.8-1.4-10.9-2.2H266v-0.1c0.9-3.1,1.7-5.6,2.3-7.5
		c0.3-0.9,0.5-1.6,0.7-2.1c0.1-0.2,0.1-0.4,0.2-0.6C269.2,44.2,269.2,44.2,269.2,44.1z"/>
</g>
<g id="freepik--Plant--inject-80">
	<path class="st6" d="M60.2,147.5c8.4-8.4,20.6-11.7,32.1-8.8c-9.6,6.5-20.9,10-32.4,10.1"/>
	<path class="st6" d="M71,109c-1.3-9.4,2.3-20.1,9.4-26.9C80.7,91.4,76.8,101.9,71,109"/>
	<path class="st6" d="M65.4,126.8c5.1-9.7,13.2-17.5,23.2-22.1C85.4,115.8,76.5,124.3,65.4,126.8"/>
	<path class="st6" d="M64.2,130.3c5.7,0.2,11.5,0,17-1.5s10.8-4.3,14.5-8.6c-11.2,0-22.1,3.4-31.4,9.6"/>
	<path class="st6" d="M67.1,118.9c-2.9-10.9-7.7-18.4-16.2-24.4C49.5,105.5,56.4,115.9,67.1,118.9"/>
	<path class="st6" d="M45.6,137.6c0-6.5,3.8-12.3,9.8-14.9C54.8,128.4,50.4,134.9,45.6,137.6"/>
	<path class="st6" d="M42.8,128.5c-0.8-9.3-6.9-17.3-15.7-20.4C29.1,117.1,34.4,124.7,42.8,128.5"/>
	<path class="st6" d="M46.9,144.7c-2-2.9-5.3-4.7-8.7-5.6c-3.4-0.9-6.9-1-10.4-1c4.8,5.2,11.7,8.1,18.9,7.9"/>
	<path class="st6" d="M51,167.9c-13.3-4.1-27.5,2.6-32.7,15.5C30.2,181.1,41.9,175.8,51,167.9"/>
	<path class="st6" d="M64.1,159.8c-2,5.8-1.6,12.9,2.8,17.9C68.6,171.7,67.6,165.1,64.1,159.8"/>
	<path class="st6" d="M71.8,156.6c0.7,7.6,5.2,14.4,12.1,17.8c0.3,0.2,0.7,0.3,1.1,0.2c0.5-0.2,0.6-1,0.5-1.5
		C84.6,165.6,79.1,158.3,71.8,156.6"/>
	<path class="st6" d="M76.8,155.8c6.8,7.3,18.1,7.7,25.4,1c0.3-0.3,0.6-0.6,0.9-0.9C94.7,155,85.1,154.4,76.8,155.8"/>
	<path class="st5" d="M78,89c0,0.1,0,0.2-0.1,0.2L77.7,90c-0.2,0.6-0.6,1.5-1,2.7s-1,2.6-1.6,4.3c-0.3,0.8-0.6,1.7-1,2.7s-0.7,2-1,3
		c-1.5,4.2-3.1,9.3-4.9,15s-3.6,11.9-5.4,18.5c-1.8,6.6-3.4,12.9-4.7,18.7s-2.5,11-3.2,15.4c-0.2,1.1-0.4,2.2-0.6,3.1
		c-0.2,1-0.3,1.9-0.5,2.8c-0.3,1.8-0.6,3.3-0.7,4.5c-0.2,1.2-0.3,2.2-0.4,2.9c-0.1,0.3-0.1,0.6-0.1,0.7c0,0.1,0,0.2-0.1,0.3
		c0-0.1,0-0.2,0-0.3l0.1-0.7c0.1-0.7,0.2-1.6,0.4-2.9c0.2-1.2,0.4-2.8,0.7-4.5c0.1-0.9,0.3-1.8,0.5-2.8s0.4-2.1,0.6-3.1
		c0.8-4.4,1.9-9.6,3.2-15.4c1.3-5.8,2.9-12.1,4.7-18.7c1.8-6.6,3.6-12.9,5.4-18.5c1.8-5.7,3.5-10.7,5-15l1.1-3l1-2.7
		c0.6-1.7,1.2-3.1,1.6-4.3c0.5-1.2,0.8-2.1,1.1-2.7c0.1-0.3,0.2-0.5,0.3-0.7C78,89.1,78,89.1,78,89z"/>
	<path class="st5" d="M32.1,112.9C32.2,112.9,32.2,113,32.1,112.9l0.5,0.5c0.3,0.4,0.9,0.9,1.5,1.7c1.8,2.1,3.4,4.3,4.9,6.6
		c2.2,3.4,3.9,7.1,5.1,11c1.4,4.4,2.2,9.4,3.1,14.6c1.7,10.4,3.8,19.8,5.3,26.5c0.8,3.4,1.4,6.1,1.8,8c0.2,0.9,0.4,1.7,0.5,2.2
		l0.1,0.6c0,0.1,0,0.1,0,0.2c0-0.1,0-0.1-0.1-0.2l-0.1-0.6c-0.1-0.5-0.3-1.2-0.5-2.2c-0.5-1.9-1.1-4.6-1.9-8
		c-1.6-6.8-3.7-16.1-5.4-26.5c-0.9-5.2-1.7-10.2-3.1-14.5c-1.2-3.9-2.9-7.6-5.1-11c-1.5-2.3-3.1-4.5-4.8-6.6
		c-0.6-0.7-1.1-1.3-1.4-1.7l-0.4-0.4C32.2,113,32.1,112.9,32.1,112.9z"/>
	<path class="st5" d="M79.3,155.5c-0.1,0-0.2,0.1-0.3,0.1l-0.9,0.1l-0.6,0.1l-0.7,0.1c-0.5,0.1-1.1,0.2-1.8,0.3l-1,0.2l-1.1,0.3
		c-0.8,0.2-1.6,0.5-2.4,0.7c-1.8,0.6-3.6,1.4-5.3,2.3c-1.7,0.9-3.3,2-4.7,3.3c-0.6,0.5-1.3,1.1-1.8,1.7c-0.5,0.5-1,1.1-1.4,1.7
		c-0.4,0.5-0.7,1-1.1,1.5c-0.3,0.4-0.5,0.8-0.7,1.2l-0.4,0.7c-0.1,0.2-0.2,0.3-0.2,0.3c0-0.1,0.1-0.2,0.1-0.3
		c0.1-0.2,0.2-0.5,0.4-0.8c0.2-0.4,0.4-0.8,0.7-1.2c0.3-0.5,0.7-1,1-1.5c0.4-0.6,0.9-1.2,1.4-1.7c0.6-0.6,1.2-1.2,1.8-1.8
		c1.5-1.3,3.1-2.4,4.8-3.4c1.7-0.9,3.5-1.7,5.4-2.3c0.9-0.3,1.7-0.5,2.5-0.7l1.1-0.3l1-0.2c0.7-0.1,1.3-0.2,1.8-0.3l0.7-0.1h0.6h0.9
		C79.1,155.5,79.2,155.5,79.3,155.5z"/>
	<path class="st5" d="M81.7,113.1c-0.2,0.2-0.4,0.4-0.6,0.6l-1.7,1.5c-1.5,1.2-3.5,3-5.8,4.8c-2.3,1.9-4.3,3.6-5.8,4.8l-1.8,1.4
		c-0.2,0.2-0.4,0.3-0.7,0.5c0.2-0.2,0.4-0.4,0.6-0.6l1.7-1.5c1.5-1.2,3.5-3,5.8-4.8s4.3-3.6,5.8-4.8l1.8-1.4
		C81.2,113.4,81.5,113.2,81.7,113.1z"/>
	<path class="st5" d="M83.7,124.2c0,0.1-4.4,1.5-9.8,3.1c-5.5,1.6-9.9,2.8-9.9,2.8s4.4-1.5,9.8-3.1
		C79.3,125.3,83.7,124.1,83.7,124.2z"/>
	<path class="st5" d="M67.5,119.8c-0.2-0.2-0.3-0.4-0.5-0.6l-1.2-1.8c-1-1.5-2.4-3.5-4-5.7c-1.7-2.2-3.2-4-4.4-5.4l-1.4-1.6
		c-0.2-0.2-0.3-0.4-0.5-0.6c0.2,0.2,0.4,0.3,0.6,0.5c0.4,0.3,0.9,0.9,1.5,1.5c1.2,1.3,2.8,3.2,4.5,5.3c1.7,2.2,3,4.2,4,5.7
		c0.5,0.8,0.8,1.4,1.1,1.8C67.3,119.3,67.4,119.5,67.5,119.8z"/>
	<path class="st5" d="M52.3,125.9c-0.3,0.6-0.6,1.2-1,1.7c-0.7,1-1.5,2.5-2.5,4.1c-0.9,1.6-1.7,3.1-2.3,4.2
		c-0.3,0.6-0.6,1.2-0.9,1.7c0.2-0.6,0.4-1.3,0.7-1.8c0.5-1.1,1.2-2.6,2.2-4.3s1.8-3.1,2.6-4C51.4,126.9,51.8,126.4,52.3,125.9z"/>
	<path class="st5" d="M47.1,145c0,0-0.9-0.4-2.2-1c-1.4-0.6-3.3-1.4-5.4-2.2c-2.2-0.8-4.2-1.3-5.6-1.7c-1.5-0.4-2.4-0.6-2.4-0.6
		c0.2,0,0.4,0,0.7,0.1c0.4,0.1,1,0.2,1.8,0.3c1.9,0.4,3.8,1,5.7,1.6s3.7,1.4,5.4,2.3c0.7,0.3,1.2,0.6,1.6,0.8
		C46.7,144.8,46.9,144.9,47.1,145z"/>
	<path class="st5" d="M51.2,167.9c-0.1,0-0.2,0.1-0.3,0.1l-0.8,0.2l-2.9,0.7c-3.2,0.7-6.4,1.5-9.5,2.5s-6.1,2.4-8.9,4.2
		c-1.1,0.7-1.9,1.3-2.5,1.7c-0.3,0.2-0.6,0.5-0.9,0.6c0.1-0.1,0.1-0.1,0.2-0.2c0.1-0.1,0.3-0.3,0.6-0.5c0.8-0.6,1.6-1.2,2.4-1.8
		c2.8-1.8,5.8-3.2,8.9-4.3c3.1-1,6.3-1.8,9.6-2.5L50,168C50.4,168,50.8,167.9,51.2,167.9z"/>
	<path class="st5" d="M66,173.5c-0.1,0-0.6-3.1-1.2-6.9c-0.6-3.8-0.9-6.9-0.9-6.9c0.1,0,0.6,3.1,1.2,6.9S66.1,173.5,66,173.5z"/>
	<path class="st5" d="M81.5,167.9c-0.5-0.5-1-1.1-1.4-1.7c-0.8-1-2-2.5-3.3-4s-2.5-2.9-3.4-3.9c-0.5-0.5-1-1.1-1.4-1.7
		c0.2,0.1,0.3,0.2,0.4,0.4c0.3,0.3,0.7,0.6,1.1,1.1c0.9,1,2.2,2.3,3.5,3.9s2.5,3,3.2,4.1c0.4,0.5,0.7,1,0.9,1.3
		C81.3,167.6,81.4,167.8,81.5,167.9z"/>
	<polygon class="st2" points="40.6,182.3 40.6,189.9 42.5,189.9 49.3,211.3 64.3,211.3 70.9,190.1 73.5,189.9 73.5,182.3 	"/>
	<path class="st5" d="M72.2,190.1c0,0.1-6.7,0.2-14.8,0.2s-14.9-0.1-14.9-0.2c0-0.1,6.6-0.2,14.9-0.2S72.2,190,72.2,190.1z"/>
	<path class="st5" d="M83,141c-0.3,0.1-0.6,0.2-1,0.3l-2.6,0.6c-2.2,0.6-5.3,1.4-8.6,2.5c-3.3,1.1-6.3,2.3-8.4,3.2l-2.5,1.1
		c-0.3,0.2-0.6,0.3-0.9,0.4c0.3-0.2,0.6-0.4,0.9-0.5c0.6-0.3,1.4-0.7,2.5-1.2c5.5-2.5,11.2-4.4,17-5.7c1.1-0.2,2-0.4,2.7-0.5
		C82.3,141.1,82.7,141,83,141z"/>
	<path class="st9" d="M67.2,202c0,0.1-4.7,0.2-10.4,0.2s-10.4-0.1-10.4-0.2s4.7-0.2,10.4-0.2S67.2,201.9,67.2,202z"/>
	<path class="st9" d="M67.8,200.2c0,0.1-4.9,0.2-11,0.2s-11-0.1-11-0.2s4.9-0.2,11-0.2S67.8,200.2,67.8,200.2z"/>
</g>
</svg>
